<svg width="32" height="32" viewBox="0 0 32 32" fill="none" xmlns="http://www.w3.org/2000/svg">
<path d="M11.3423 18.0039L5.7111 28H29V30H5C4.46975 29.9994 3.9614 29.7885 3.58646 29.4135C3.21152 29.0386 3.00061 28.5302 3 28V2H5V25.1826L9.5834 17.0342C9.72861 16.7716 9.93097 16.545 10.1755 16.371C10.4201 16.1971 10.7006 16.0804 10.9963 16.0294C11.292 15.9785 11.5954 15.9946 11.8841 16.0767C12.1727 16.1587 12.4393 16.3045 12.664 16.5034L20.0985 22.9941L20.1685 22.8906L27.1685 12.4434L28.8307 13.5566L21.86 23.96C21.7156 24.2238 21.5135 24.4516 21.2689 24.6266C21.0242 24.8015 20.7432 24.919 20.4469 24.9703C20.1506 25.0216 19.8465 25.0054 19.5572 24.9229C19.268 24.8404 19.0011 24.6938 18.7764 24.4939L11.3423 18.0039Z" fill="white"/>
<path d="M21 2H9V4H21V2Z" fill="white"/>
<path d="M9 6H21V8H9V6Z" fill="white"/>
<path d="M9 10H17V12H9V10Z" fill="white"/>
</svg>
