<svg width="32" height="32" viewBox="0 0 32 32" fill="none" xmlns="http://www.w3.org/2000/svg">
<path fill-rule="evenodd" clip-rule="evenodd" d="M6 28.0003H16V30.0003H6C5.47004 29.9988 4.96222 29.7876 4.58748 29.4129C4.21274 29.0381 4.00153 28.5303 4 28.0003V4.00034C4.00153 3.47038 4.21274 2.96256 4.58748 2.58782C4.96222 2.21308 5.47004 2.00187 6 2.00034H16C16.1314 1.99673 16.2621 2.02168 16.3829 2.07347C16.5038 2.12527 16.612 2.20267 16.7 2.30034L23.7 9.30034C23.7976 9.38839 23.875 9.49657 23.9268 9.61742C23.9786 9.73827 24.0036 9.86891 24 10.0003V15.0003H22V12.0003H16C15.47 11.9988 14.9622 11.7876 14.5875 11.4129C14.2127 11.0381 14.0015 10.5303 14 10.0003V4.00034H6V28.0003ZM21.6 10.0003L16 4.40034V10.0003H21.6Z" fill="white"/>
<path d="M26.586 23.5863L28 25.0003L23 30.0003L18 25.0003L19.414 23.5863L22 26.1723V18.0003H24V26.1723L26.586 23.5863Z" fill="white"/>
</svg>
